<svg width="318" height="67" viewBox="0 0 318 67" fill="none" xmlns="http://www.w3.org/2000/svg">
<path d="M15.7695 46.5469C17.5977 46.5938 19.1211 46.1016 20.3398 45.0703C21.5586 44.0156 22.3555 42.6211 22.7305 40.8867L32.0469 40.8516C31.8828 43.5234 31.0391 45.9258 29.5156 48.0586C28.0156 50.1914 26 51.8555 23.4688 53.0508C20.9609 54.2461 18.3125 54.8086 15.5234 54.7383C10.9062 54.668 7.25 53.0742 4.55469 49.957C1.85938 46.8398 0.558594 42.6914 0.652344 37.5117L0.757812 35.5781L0.792969 35.1914C1.42578 29.0039 3.51172 24.1055 7.05078 20.4961C10.5898 16.8633 14.9609 15.1172 20.1641 15.2578C24.4531 15.3516 27.8516 16.7578 30.3594 19.4766C32.8906 22.1719 34.1328 25.7344 34.0859 30.1641H24.8398C24.8398 28.125 24.3945 26.5195 23.5039 25.3477C22.6133 24.1758 21.2773 23.543 19.4961 23.4492C14.7617 23.3086 11.8906 26.7656 10.8828 33.8203C10.5312 36.375 10.4023 38.5312 10.4961 40.2891C10.7305 44.3906 12.4883 46.4766 15.7695 46.5469ZM36.5117 54L43.1211 15.9609L57.9922 15.9961C61.625 16.0898 64.6133 16.6758 66.957 17.7539C70.6836 19.4648 72.4766 22.3125 72.3359 26.2969C72.1953 29.9531 69.5234 32.7656 64.3203 34.7344C66.5234 35.3203 68.2344 36.3281 69.4531 37.7578C70.6953 39.1641 71.293 40.8633 71.2461 42.8555C71.1289 46.4883 69.6523 49.2539 66.8164 51.1523C64.0039 53.0508 60.0664 54 55.0039 54H36.5117ZM49.2031 38.2148L47.8672 45.8789L55.1797 45.9141C58.9531 45.7969 61.1094 44.4609 61.6484 41.9062C62.1172 39.5859 60.8047 38.3672 57.7109 38.25L49.2031 38.2148ZM50.3633 31.3945L55.8828 31.4297C59.6328 31.2891 61.7305 30.0586 62.1758 27.7383C62.4102 26.6602 62.2109 25.8164 61.5781 25.207C60.9453 24.5742 59.6797 24.2227 57.7812 24.1523L51.6289 24.1172L50.3633 31.3945ZM97.5078 15.2578C100.859 15.3047 103.742 16.1719 106.156 17.8594C108.594 19.5234 110.375 21.832 111.5 24.7852C112.648 27.7148 113.059 30.9727 112.73 34.5586C112.191 40.6055 110.082 45.5039 106.402 49.2539C102.746 52.9805 98.2227 54.7969 92.832 54.7031C89.5273 54.6562 86.668 53.8125 84.2539 52.1719C81.8398 50.5078 80.0586 48.2109 78.9102 45.2812C77.7617 42.3516 77.3516 39.1172 77.6797 35.5781C78.2891 29.2969 80.4219 24.3047 84.0781 20.6016C87.7344 16.8984 92.2109 15.1172 97.5078 15.2578ZM87.4883 39.1992C87.5352 41.4492 88.0625 43.2305 89.0703 44.543C90.0781 45.832 91.4961 46.5 93.3242 46.5469C96.3711 46.6406 98.7617 45.2461 100.496 42.3633C102.23 39.457 103.039 35.6484 102.922 30.9375C102.828 28.6875 102.277 26.8945 101.27 25.5586C100.285 24.1992 98.8672 23.4961 97.0156 23.4492C94.0625 23.3555 91.6953 24.75 89.9141 27.6328C88.1562 30.4922 87.3477 34.3477 87.4883 39.1992ZM144.125 15.9609H154.355L147.781 54H137.832L141.805 31.2188L125.879 54H115.613L122.223 15.9609H132.172L128.199 38.707L144.125 15.9609ZM152.527 0.457031C152.387 3.71484 151.156 6.30469 148.836 8.22656C146.516 10.1484 143.621 11.0625 140.152 10.9688C136.918 10.9219 134.27 9.97266 132.207 8.12109C130.168 6.24609 129.125 3.69141 129.078 0.457031L136.039 0.527344C135.945 3.57422 137.293 5.12109 140.082 5.16797C141.605 5.21484 142.824 4.81641 143.738 3.97266C144.652 3.10547 145.238 1.95703 145.496 0.527344L152.527 0.457031Z" fill="black"/>
<path d="M200.234 66.5859H190.672L192.852 54H163.004L160.824 66.5508H151.086L154.18 45.5273L157.414 45.5977C161.984 42.6445 165.277 37.3008 167.293 29.5664L168.031 26.6484L173.621 2.8125H206.281L198.863 45.5273H204.699L200.234 66.5859ZM169.543 45.7031L188.562 45.5273L194.504 11.3555H182.023L177.91 28.8633C176.012 36.1758 173.223 41.7891 169.543 45.7031ZM228.57 54.7031C225.172 54.6328 222.172 53.8359 219.57 52.3125C216.992 50.7656 214.941 48.5508 213.418 45.668C211.918 42.7617 211.051 39.4336 210.816 35.6836C210.559 31.8398 210.969 27.7383 212.047 23.3789C213.125 19.0195 214.859 15.1875 217.25 11.8828C219.641 8.57812 222.441 6.10547 225.652 4.46484C228.887 2.82422 232.379 2.03906 236.129 2.10938C239.574 2.17969 242.586 3 245.164 4.57031C247.742 6.11719 249.77 8.35547 251.246 11.2852C252.723 14.1914 253.566 17.4961 253.777 21.1992C254.012 25.3242 253.566 29.5664 252.441 33.9258C251.316 38.2852 249.57 42.0586 247.203 45.2461C244.836 48.4336 242.059 50.8242 238.871 52.418C235.707 54.0117 232.273 54.7734 228.57 54.7031ZM243.16 27L243.441 23.6602C243.676 19.4883 243.113 16.3242 241.754 14.168C240.418 12.0117 238.379 10.8867 235.637 10.793C231.348 10.6523 227.938 12.5508 225.406 16.4883C222.898 20.4258 221.48 25.9336 221.152 33.0117C220.918 37.1602 221.469 40.3594 222.805 42.6094C224.141 44.8359 226.215 45.9961 229.027 46.0898C232.707 46.2539 235.754 44.8242 238.168 41.8008C240.582 38.7539 242.164 34.4531 242.914 28.8984L243.16 27ZM278.703 2.8125L284.996 39.832L304.086 2.8125H317.797L308.902 54H298.566L301.098 39.4102L306.09 16.6289L286.473 54H279.406L272.551 15.3281L269.246 40.5352L266.891 54H256.59L265.484 2.8125H278.703Z" fill="#8E0A0A"/>
</svg>
